<?xml version="1.0" encoding="UTF-8" standalone="no"?>
<!DOCTYPE svg PUBLIC "-//W3C//DTD SVG 1.1//EN" "http://www.w3.org/Graphics/SVG/1.1/DTD/svg11.dtd">
<svg width="100%" height="100%" viewBox="0 0 130 32" version="1.1" xmlns="http://www.w3.org/2000/svg" xmlns:xlink="http://www.w3.org/1999/xlink" xml:space="preserve" xmlns:serif="http://www.serif.com/" style="fill-rule:evenodd;clip-rule:evenodd;stroke-linejoin:round;stroke-miterlimit:2;">
    <g transform="matrix(1,0,0,1,-59.8663,-188.722)">
        <g transform="matrix(4.16667,0,0,4.16667,0,0)">
            <g transform="matrix(1,0,0,1,27.3579,52.7472)">
                <path d="M0,-7.454L0,-5.668L-10.502,-5.668C-10.779,-5.668 -10.963,-5.593 -11.055,-5.444C-11.112,-5.352 -11.14,-5.207 -11.14,-5.008L-11.14,-4.381L-9.49,-4.381L-9.49,-2.658L-11.14,-2.658L-11.14,0L-12.99,0L-12.99,-4.945C-12.99,-5.731 -12.81,-6.334 -12.448,-6.752C-12.044,-7.22 -11.431,-7.454 -10.608,-7.454L0,-7.454Z" style="fill:rgb(212,115,88);fill-rule:nonzero;"/>
            </g>
        </g>
        <g transform="matrix(4.16667,0,0,4.16667,0,0)">
            <g transform="matrix(1,0,0,1,23.8383,47.5801)">
                <path d="M0,5.167L-1.701,5.167L-1.701,2.636C-1.701,2.282 -1.79,2.002 -1.967,1.796C-2.18,1.548 -2.492,1.424 -2.903,1.424C-3.158,1.424 -3.392,1.495 -3.605,1.636C-3.91,1.84 -4.062,2.151 -4.062,2.567C-4.062,2.984 -3.92,3.294 -3.637,3.499C-3.431,3.647 -3.201,3.721 -2.945,3.721C-2.74,3.721 -2.589,3.716 -2.494,3.706C-2.398,3.696 -2.272,3.659 -2.116,3.593L-2.116,4.997C-2.35,5.195 -2.715,5.295 -3.211,5.295C-3.934,5.295 -4.542,5.031 -5.035,4.502C-5.528,3.974 -5.774,3.331 -5.774,2.572C-5.774,1.764 -5.501,1.105 -4.955,0.595C-4.445,0.113 -3.832,-0.128 -3.116,-0.128C-2.286,-0.128 -1.588,0.052 -1.021,0.414C-0.34,0.846 0,1.47 0,2.285L0,5.167Z" style="fill:rgb(75,60,64);fill-rule:nonzero;"/>
            </g>
        </g>
        <g transform="matrix(4.16667,0,0,4.16667,0,0)">
            <g transform="matrix(1,0,0,1,27.3579,52.7471)">
                <path d="M0,-5.189L0,-3.796L-1.35,-3.796C-1.563,-3.796 -1.68,-3.729 -1.701,-3.594C-1.68,-3.445 -1.563,-3.335 -1.35,-3.264C-0.783,-3.045 -0.379,-2.825 -0.138,-2.605C0.145,-2.35 0.287,-2.042 0.287,-1.68C0.287,-1.063 0.085,-0.613 -0.319,-0.33C-0.631,-0.11 -1.024,0 -1.499,0L-3.392,0L-3.392,-1.457L-1.786,-1.457C-1.552,-1.457 -1.436,-1.524 -1.436,-1.659C-1.436,-1.801 -1.56,-1.914 -1.808,-1.999C-2.403,-2.212 -2.797,-2.433 -2.988,-2.664C-3.179,-2.894 -3.293,-3.19 -3.328,-3.551C-3.328,-3.963 -3.211,-4.317 -2.977,-4.615C-2.672,-4.998 -2.233,-5.189 -1.659,-5.189L0,-5.189Z" style="fill:rgb(75,60,64);fill-rule:nonzero;"/>
            </g>
        </g>
        <g transform="matrix(4.16667,0,0,4.16667,0,0)">
            <g transform="matrix(1,0,0,1,29.3782,52.7472)">
                <path d="M0,-7.454L0,-5.221L1.234,-5.221L1.234,-3.669L0,-3.669L0,-2.247C0,-1.969 0.074,-1.777 0.223,-1.67C0.344,-1.585 0.521,-1.542 0.755,-1.542L1.255,-1.542L1.255,0L0.106,0C-0.319,0 -0.705,-0.16 -1.053,-0.479C-1.428,-0.826 -1.616,-1.241 -1.616,-1.723L-1.616,-7.454L0,-7.454Z" style="fill:rgb(75,60,64);fill-rule:nonzero;"/>
            </g>
        </g>
        <g transform="matrix(4.16667,0,0,4.16667,0,0)">
            <g transform="matrix(1,0,0,1,44.2295,52.7472)">
                <path d="M0,-7.454L0,-5.221L1.234,-5.221L1.234,-3.669L0,-3.669L0,-2.247C0,-1.969 0.074,-1.777 0.223,-1.67C0.344,-1.585 0.521,-1.542 0.755,-1.542L1.255,-1.542L1.255,0L0.106,0C-0.319,0 -0.705,-0.16 -1.053,-0.479C-1.428,-0.826 -1.616,-1.241 -1.616,-1.723L-1.616,-7.454L0,-7.454Z" style="fill:rgb(75,60,64);fill-rule:nonzero;"/>
            </g>
        </g>
        <g transform="matrix(4.16667,0,0,4.16667,0,0)">
            <g transform="matrix(1,0,0,1,29.8103,52.7472)">
                <path d="M0,-7.454L12.397,-7.454L12.397,-5.668L3.201,-5.668L3.201,0L1.35,0L1.35,-5.668L0,-5.668L0,-7.454Z" style="fill:rgb(212,115,88);fill-rule:nonzero;"/>
            </g>
        </g>
        <g transform="matrix(4.16667,0,0,4.16667,0,0)">
            <g transform="matrix(1,0,0,1,38.6452,51.2363)">
                <path d="M0,-2.147L-2.584,-0.382L-3.22,-1.39L-1.826,-2.303C-1.933,-2.361 -2.018,-2.4 -2.082,-2.422C-2.21,-2.473 -2.348,-2.498 -2.497,-2.498C-2.817,-2.498 -3.076,-2.361 -3.275,-2.089C-3.473,-1.816 -3.573,-1.502 -3.573,-1.147C-3.573,-0.708 -3.424,-0.368 -3.126,-0.127C-2.906,0.051 -2.676,0.139 -2.435,0.139C-2.13,0.139 -1.848,0.047 -1.589,-0.137C-1.33,-0.322 -1.098,-0.609 -0.892,-0.999L0.33,-0.382C-0.009,0.348 -0.465,0.883 -1.037,1.224C-1.503,1.5 -2.001,1.638 -2.53,1.638C-3.258,1.638 -3.888,1.364 -4.421,0.814C-4.954,0.265 -5.221,-0.325 -5.221,-0.956L-5.221,-1.062C-5.221,-2.062 -4.849,-2.806 -4.104,-3.295C-3.608,-3.622 -3.087,-3.785 -2.541,-3.785C-2.074,-3.785 -1.655,-3.689 -1.287,-3.497C-0.769,-3.228 -0.34,-2.778 0,-2.147" style="fill:rgb(75,60,64);fill-rule:nonzero;"/>
            </g>
        </g>
        <g transform="matrix(4.16667,0,0,4.16667,0,0)">
            <g transform="matrix(1,0,0,1,42.2073,52.7471)">
                <path d="M0,-5.189L0,-3.796L-1.35,-3.796C-1.563,-3.796 -1.68,-3.729 -1.701,-3.594C-1.68,-3.445 -1.563,-3.335 -1.35,-3.264C-0.783,-3.045 -0.379,-2.825 -0.138,-2.605C0.145,-2.35 0.287,-2.042 0.287,-1.68C0.287,-1.063 0.085,-0.613 -0.319,-0.33C-0.631,-0.11 -1.024,0 -1.499,0L-3.392,0L-3.392,-1.457L-1.786,-1.457C-1.552,-1.457 -1.436,-1.524 -1.436,-1.659C-1.436,-1.801 -1.56,-1.914 -1.808,-1.999C-2.403,-2.212 -2.797,-2.433 -2.988,-2.664C-3.179,-2.894 -3.293,-3.19 -3.328,-3.551C-3.328,-3.963 -3.211,-4.317 -2.977,-4.615C-2.673,-4.998 -2.233,-5.189 -1.659,-5.189L0,-5.189Z" style="fill:rgb(75,60,64);fill-rule:nonzero;"/>
            </g>
        </g>
    </g>
</svg>
